<svg height="511pt" viewBox="0 -43 511.99893 511" width="511pt" xmlns="http://www.w3.org/2000/svg"><path d="m358.394531 53.453125c16.449219-48.191406 53.261719-55.59375 87.472657-14.515625 14.171874 2.78125 25.828124 10.039062 34.214843 19.839844l.902344 1.082031c8.621094 10.503906 13.558594 23.699219 14.054687 37.304687 33.832032 40.644532 14.636719 78.625-36.199218 86.261719l-30.558594 4.679688-81.398438-100.625zm0 0" fill="#4bc6c0" fill-rule="evenodd"/><path d="m370.226562 29.867188c-4.613281 6.261718-8.617187 14.132812-11.832031 23.582031l-10.898437 32.1875c.292968.089843.585937.175781.878906.265625 8.910156 2.71875 17.46875 6.523437 25.535156 11.351562l7.855469-23.261718c12.738281-37.28125 37.632813-50.152344 64.101563-35.054688-27.492188-33.035156-56.707032-34.730469-75.640626-9.070312zm0 0" fill="#1ba188" fill-rule="evenodd"/><path d="m390.261719 116.875c-1.230469 0-2.480469-.292969-3.644531-.914062-3.800782-2.019532-5.246094-6.742188-3.226563-10.542969l17.265625-32.539063c2.019531-3.800781 6.738281-5.246094 10.535156-3.226562 3.800782 2.019531 5.242188 6.738281 3.226563 10.542968l-17.265625 32.539063c-1.402344 2.636719-4.101563 4.140625-6.890625 4.140625zm0 0" fill="#1ba188"/><path d="m413.640625 144.613281c-3.257813 0-6.292969-2.058593-7.382813-5.320312-1.367187-4.085938.832032-8.503907 4.910157-9.871094l34.828125-11.675781c4.078125-1.367188 8.492187.832031 9.859375 4.917968 1.367187 4.082032-.832031 8.5-4.910157 9.871094l-34.828124 11.671875c-.820313.277344-1.65625.40625-2.476563.40625zm0 0" fill="#1ba188"/><path d="m403.332031 130.1875c-2.230469 0-4.445312-.953125-5.984375-2.804688-2.757812-3.304687-2.3125-8.222656.992188-10.980468l43.445312-36.285156c3.300782-2.757813 8.214844-2.316407 10.972656.992187 2.753907 3.308594 2.3125 8.222656-.992187 10.984375l-43.445313 36.28125c-1.457031 1.21875-3.226562 1.8125-4.988281 1.8125zm0 0" fill="#1ba188"/><path d="m414.695312 138.570312c32.429688 55.621094 13.703126 127.074219-41.835937 159.554688-55.570313 32.507812-126.917969 13.722656-159.347656-41.902344-32.460938-55.652344-13.703125-127.074218 41.839843-159.582031 55.566407-32.480469 126.882813-13.722656 159.34375 41.929687zm0 0" fill="#9bdeda" fill-rule="evenodd"/><path d="m406.164062 223.921875c43.0625-27.066406 76.339844-9.597656 77.074219 43.859375 9.289063 11.121094 13.757813 24.109375 14.109375 36.984375l.027344 1.4375c.089844 13.574219-4.378906 26.976563-12.53125 37.832031.730469 52.902344-38.039062 70.339844-82.332031 44.210938l-26.703125-15.65625v-129.503906zm0 0" fill="#8edb74" fill-rule="evenodd"/><path d="m395.671875 296.742188c-2.925781 0-5.710937-1.722657-6.925781-4.589844-1.625-3.824219.160156-8.246094 3.980468-9.871094l32.691407-13.898438c3.820312-1.625 8.238281.160157 9.863281 3.988282 1.625 3.824218-.160156 8.246094-3.984375 9.871094l-32.6875 13.898437c-.960937.40625-1.957031.601563-2.9375.601563zm0 0" fill="#4bc25f"/><path d="m429.597656 344.199219c-.875 0-1.765625-.15625-2.632812-.480469l-33.199219-12.429688c-3.886719-1.457031-5.863281-5.792968-4.40625-9.6875 1.453125-3.894531 5.789063-5.867187 9.679687-4.414062l33.195313 12.429688c3.890625 1.457031 5.863281 5.792968 4.410156 9.6875-1.132812 3.023437-4 4.894531-7.046875 4.894531zm0 0" fill="#4bc25f"/><path d="m397.386719 314.675781c-4.105469 0-7.460938-3.300781-7.519531-7.421875-.058594-4.15625 3.261718-7.574218 7.417968-7.632812l54.632813-.761719h.105469c4.105468 0 7.460937 3.300781 7.519531 7.421875.058593 4.15625-3.261719 7.574219-7.414063 7.632812l-54.636718.761719c-.035157 0-.070313 0-.105469 0zm0 0" fill="#4bc25f"/><g fill-rule="evenodd"><path d="m347.496094 85.636719c-29.828125-8.953125-63.132813-5.96875-92.144532 11.003906-19.984374 11.703125-35.207031 28.441406-44.992187 47.664063-7.277344 14.308593-11.570313 30.019531-12.535156 46.027343 4.820312 5.441407 11.21875 8.835938 18.082031 9.59375 2.808594-18.226562 9.875-35.667969 20.804688-50.792969 9.203124-12.730468 21.152343-23.816406 35.613281-32.246093 27.871093-16.296875 59.6875-19.722657 88.609375-12.023438 18.554687 4.941407 35.910156 14.421875 50.222656 28.027344-2.421875-3.683594-5.054688-7.195313-7.828125-10.503906-4.03125-4.824219-8.414063-9.273438-13.058594-13.3125-5.144531-4.445313-10.605469-8.398438-16.363281-11.820313-8.0625-4.828125-16.621094-8.632812-25.535156-11.351562zm0 0" fill="#4bc6c0"/><path d="m430.179688 213.066406c-7.507813 1.929688-15.574219 5.527344-24.015626 10.855469l-28.691406 18.140625c.175782.234375.351563.5.527344.761719 5.167969 7.722656 9.433594 16.09375 12.679688 24.898437l20.742187-13.105468c33.304687-20.921876 60.738281-15.21875 71.8125 13.164062-.582031-42.984375-22.230469-62.703125-53.054687-54.714844zm0 0" fill="#82cc62"/><path d="m396.40625 325.542969c-9.789062 63.667969-69.242188 107.382812-132.816406 97.582031-63.601563-9.773438-107.222656-69.316406-97.464844-133.015625 9.757812-63.671875 69.242188-107.386719 132.816406-97.585937 63.601563 9.773437 107.222656 69.320312 97.464844 133.019531zm0 0" fill="#aeed93"/><path d="m377.472656 242.0625c-17.558594-25.746094-45.3125-44.445312-78.53125-49.535156-22.875-3.542969-45.226562-.117188-64.917968 8.628906 8.910156 3.484375 15.425781 11.207031 17.441406 20.394531 15.164062-4.09375 31.40625-5.179687 47.941406-2.632812 31.90625 4.914062 58.785156 22.355469 76.402344 46.554687 11.335937 15.535156 18.84375 33.851563 21.414062 53.429688.4375-4.390625.585938-8.75.527344-13.082032-.089844-6.320312-.703125-12.523437-1.8125-18.578124-1.199219-6.699219-2.949219-13.226563-5.257812-19.515626-3.246094-8.808593-7.507813-17.175781-12.679688-24.902343zm0 0" fill="#82cc62"/><path d="m203.375 247.886719c-4.878906-4.917969-7.683594-11.589844-8.035156-18.84375-4.90625 5.355469-9.316406 11.175781-13.175782 17.410156-5.054687 8.164063-9.144531 17.058594-12.09375 26.539063-1.726562 5.5-3.039062 11.234374-3.945312 17.117187-1.023438 6.640625-1.460938 13.222656-1.34375 19.71875.058594 4.507813.40625 8.953125.960938 13.316406.234374-2.195312.5-4.390625.847656-6.613281 2.484375-16.296875 8.242187-31.25 16.449218-44.359375 5.699219-9.042969 12.566407-17.207031 20.335938-24.285156zm0 0" fill="#82cc62"/><path d="m283.601562 416.015625c3.59375-23.554687-12.53125-45.558594-36.050781-49.1875-19.925781-3.070313-38.742187 8.074219-46.21875 25.867187 16.59375 15.710938 37.976563 26.710938 62.257813 30.429688 5.988281.9375 11.921875 1.375 17.792968 1.375 1.023438-2.691406 1.75-5.53125 2.21875-8.484375zm0 0" fill="#ffb370"/><path d="m351.589844 347.664062c2.160156-14.191406-7.539063-27.449218-21.707032-29.640624-14.171874-2.164063-27.40625 7.578124-29.566406 21.738281-2.191406 14.191406 7.535156 27.445312 21.707032 29.640625 14.140624 2.164062 27.402343-7.546875 29.566406-21.738282zm0 0" fill="#ffb370"/><path d="m127.675781 60.972656c-7.214843-50.417968 22.234375-73.765625 71.347657-52.757812 13.878906-3.976563 27.550781-2.808594 39.46875 2.078125l1.285156.554687c12.445312 5.445313 22.847656 14.953125 29.449218 26.832032 48.589844 20.804687 48.761719 63.378906 6.953126 93.3125l-25.125 18.082031-118.179688-52.550781zm0 0" fill="#e04b84"/><path d="m28.253906 296.136719c-41.164062 29.902343-37.425781 67.324219 11.804688 88.042969 6.808594 12.757812 17.179687 21.769531 28.980468 26.917968l1.289063.554688c12.5625 5.152344 26.613281 6.03125 39.730469 2.488281 48.734375 20.484375 79.382812-9.011719 71.726562-59.925781l-4.5-30.664063-119.933594-48.394531zm0 0" fill="#e04b84"/><path d="m127.53125 34.578125c-1.285156 7.667969-1.257812 16.503906.144531 26.394531l4.9375 33.617188c.292969-.058594.585938-.117188.90625-.175782 9.144531-1.609374 18.523438-2.105468 27.871094-1.492187l-3.5625-24.3125c-5.582031-38.976563 10.78125-61.796875 41.195313-60.394531-39.5-16.910156-66.261719-5.089844-71.492188 26.363281zm0 0" fill="#b7205a"/><path d="m28.253906 296.136719c-40.960937 29.757812-37.484375 66.945312 11.074219 87.722656-21.386719-20.835937-16.1875-48.136719 15.335937-71.015625l22-15.859375c-7.449218-6.554687-13.875-13.898437-19.3125-21.828125zm0 0" fill="#b7205a"/></g><path d="m181.320312 103.792969c-.042968 0-.089843 0-.132812 0-4.300781-.070313-7.730469-3.621094-7.660156-7.925781l.613281-36.839844c.070313-4.304688 3.65625-7.710938 7.917969-7.664063 4.304687.070313 7.734375 3.621094 7.660156 7.925781l-.609375 36.835938c-.074219 4.261719-3.546875 7.667969-7.789063 7.667969zm0 0" fill="#b7205a"/><path d="m214.742188 117.867188c-1.96875 0-3.9375-.742188-5.453126-2.226563-3.074218-3.015625-3.125-7.949219-.113281-11.027344l25.707031-26.277343c3.011719-3.074219 7.945313-3.125 11.019532-.113282 3.074218 3.015625 3.125 7.949219.113281 11.027344l-25.710937 26.277344c-1.523438 1.558594-3.542969 2.339844-5.5625 2.339844zm0 0" fill="#b7205a"/><path d="m199.019531 109.707031c-1.023437 0-2.058593-.203125-3.058593-.628906-3.957032-1.691406-5.792969-6.273437-4.101563-10.234375l22.230469-52.113281c1.691406-3.957031 6.269531-5.800781 10.226562-4.109375 3.957032 1.695312 5.792969 6.273437 4.105469 10.234375l-22.234375 52.113281c-1.265625 2.960938-4.144531 4.738281-7.167969 4.738281zm0 0" fill="#b7205a"/><path d="m65.652344 342.03125c-1.992188 0-3.980469-.757812-5.5-2.277344-3.050782-3.039062-3.054688-7.976562-.019532-11.027344l25.976563-26.070312c3.039063-3.050781 7.96875-3.058594 11.015625-.019531 3.046875 3.042969 3.054688 7.980469.015625 11.03125l-25.972656 26.070312c-1.519531 1.527344-3.519531 2.292969-5.515625 2.292969zm0 0" fill="#b7205a"/><path d="m124.027344 366.988281c-.066406 0-.132813 0-.199219-.003906-4.300781-.109375-7.699219-3.6875-7.589844-7.992187l.933594-36.75c.109375-4.304688 3.675781-7.714844 7.988281-7.597657 4.300782.109375 7.699219 3.6875 7.589844 7.992188l-.9375 36.75c-.105469 4.238281-3.574219 7.601562-7.785156 7.601562zm0 0" fill="#b7205a"/><path d="m86.273438 376.824219c-1 0-2.023438-.195313-3.007813-.609375-3.96875-1.664063-5.835937-6.234375-4.171875-10.207032l21.882812-52.257812c1.664063-3.972656 6.226563-5.84375 10.195313-4.179688 3.96875 1.667969 5.835937 6.234376 4.175781 10.207032l-21.882812 52.257812c-1.253906 2.988282-4.144532 4.789063-7.191406 4.789063zm0 0" fill="#b7205a"/><path d="m216.464844 111.125c54.164062 34.789062 69.914062 106.945312 35.175781 161.195312-34.710937 54.246094-106.785156 70.015626-160.921875 35.226563-54.167969-34.789063-69.914062-106.945313-35.179688-161.195313 34.710938-54.21875 106.789063-69.988281 160.925782-35.226562zm0 0" fill="#f57e9c" fill-rule="evenodd"/><path d="m132.613281 94.589844c-30.648437 5.621094-58.957031 23.46875-77.070312 51.761718-12.503907 19.519532-18.464844 41.375-18.464844 62.9375 6.777344-6.726562 16.476563-9.566406 25.679687-7.695312 2.425782-15.535156 8.035157-30.839844 17.0625-44.941406 17.414063-27.183594 44.234376-44.738282 73.476563-51.058594 18.757813-4.039062 38.539063-3.480469 57.46875 2.105469-3.855469-2.195313-7.769531-4.125-11.742187-5.792969-5.785157-2.484375-11.71875-4.445312-17.707032-5.910156-6.574218-1.609375-13.234375-2.632813-19.925781-3.070313-9.347656-.617187-18.726563-.117187-27.871094 1.492188zm0 0" fill="#ce4d78" fill-rule="evenodd"/><path d="m67.285156 256.3125c-6.453125 2.457031-13.699218 2.339844-20.449218-.292969 2.890624 6.640625 6.398437 13.050781 10.515624 19.136719 5.4375 7.929688 11.863282 15.273438 19.316407 21.828125 4.351562 3.804687 9.027343 7.34375 14.050781 10.5625 5.640625 3.628906 11.480469 6.699219 17.441406 9.246094 4.121094 1.757812 8.328125 3.25 12.535156 4.507812-1.898437-1.085937-3.828124-2.253906-5.695312-3.453125-13.851562-8.898437-25.1875-20.21875-33.804688-33.09375-5.960937-8.867187-10.605468-18.433594-13.910156-28.441406zm0 0" fill="#ce4d78" fill-rule="evenodd"/><path d="m72.429688 205.546875c-11.425782-7.34375-26.089844-5.445313-35.351563 3.742187.03125 16.066407 3.332031 32.011719 9.757813 46.730469 12.328124 4.828125 26.234374 1.230469 34.183593-11.179687 7.945313-12.402344 4.613281-30.808594-8.589843-39.292969zm0 0" fill="#9bdeda" fill-rule="evenodd"/><path d="m253.277344 251.105469c-20.042969-12.875-46.6875-7.023438-59.515625 13.019531-10.867188 17-8.355469 38.738281 4.851562 52.816406 21.066407-8.808594 39.761719-23.90625 53.027344-44.621094 3.273437-5.121093 6.105469-10.390624 8.472656-15.746093-2.046875-2.019531-4.324219-3.859375-6.835937-5.46875zm0 0" fill="#9bdeda" fill-rule="evenodd"/><path d="m218.480469 161.128906c-12.066407-7.753906-28.105469-4.242187-35.847657 7.84375-7.742187 12.082032-4.234374 28.148438 7.828126 35.898438 12.066406 7.753906 28.105468 4.246094 35.847656-7.839844 7.742187-12.085938 4.238281-28.148438-7.828125-35.902344zm0 0" fill="#9bdeda" fill-rule="evenodd"/><path d="m62.757812 201.59375c-9.203124-1.871094-18.902343.96875-25.679687 7.695312.03125 16.066407 3.332031 32.011719 9.757813 46.730469 6.75 2.632813 13.996093 2.75 20.449218.292969-5.753906-17.496094-7.390625-36.28125-4.527344-54.71875zm0 0" fill="#4bc6c0" fill-rule="evenodd"/></svg>