<svg height="512pt" viewBox="0 -5 512.00156 512" width="512pt" xmlns="http://www.w3.org/2000/svg"><g fill-rule="evenodd"><path d="m201.660156 6.074219c-71.25-6.839844-90.144531-19.289063-130.441406 38.367187-55.222656 45.550782-77.355469 50.140625-65.148438 119.421875-6.835937 71.269531-19.277343 90.171875 38.339844 130.527344 45.523438 55.226563 50.109375 77.402344 119.347656 65.160156 71.222657 6.839844 90.117188 19.285157 130.445313-38.363281 55.1875-45.558594 77.351563-50.117188 65.117187-119.398438 6.835938-71.296874 19.273438-90.203124-38.339843-130.523437-45.527344-55.257813-50.082031-77.40625-119.320313-65.191406zm0 0" fill="#ffb370"/><path d="m6.070312 163.863281c-6.835937 71.269531-19.277343 90.171875 38.339844 130.527344 45.523438 55.226563 50.109375 77.402344 119.347656 65.160156 20.5 1.988281 36.648438 4.414063 50.253907 5.492188.996093-9.230469 2.367187-19.808594 3.535156-32.316407-.234375-1.429687-.46875-2.804687-.671875-4.175781-1.136719.027344-2.277344.027344-3.417969.027344-92.597656 0-167.644531-75.097656-167.644531-167.726563 0-74.277343 48.238281-137.277343 115.082031-159.335937-40.007812-4.328125-58.375-1.84375-89.679687 42.921875-55.21875 45.554688-77.351563 50.144531-65.144532 119.425781zm0 0" fill="#fc895b"/><path d="m128.277344 187.675781c-17.023438-7.039062-36.53125 1.023438-43.566406 18.058594-7.066407 17.035156 1.019531 36.585937 18.042968 43.628906 17.027344 7.039063 36.53125-1.054687 43.601563-18.089843 7.035156-17.035157-1.054688-36.550782-18.078125-43.597657zm0 0" fill="#8edb74"/><path d="m156.28125 61.679688c-21.113281-6.75-43.714844 4.90625-50.460938 26.035156-6.742187 21.125 4.90625 43.742187 26.019532 50.492187 21.144531 6.75 43.714844-4.90625 50.460937-26.035156 6.746094-21.15625-4.90625-43.742187-26.019531-50.492187zm0 0" fill="#f57e9c"/><path d="m224.234375 131.867188c-7.066406 17.035156 1.019531 36.554687 18.046875 43.597656 17.023438 7.070312 36.53125-1.023438 43.597656-18.058594 7.035156-17.035156-1.050781-36.554688-18.074218-43.628906-17.027344-7.042969-36.53125 1.054687-43.570313 18.089844zm0 0" fill="#9bdeda"/><path d="m105.820312 87.714844c-6.742187 21.125 4.90625 43.742187 26.019532 50.492187 8.9375 2.863281 18.136718 2.425781 26.253906-.613281-19.710938-7.597656-30.3125-29.339844-23.800781-49.734375 3.882812-12.214844 13.082031-21.242187 24.207031-25.417969-.726562-.265625-1.460938-.527344-2.21875-.761718-21.113281-6.75-43.714844 4.90625-50.460938 26.035156zm0 0" fill="#ce4d78"/><path d="m128.277344 187.675781c-17.023438-7.039062-36.53125 1.023438-43.566406 18.058594-7.066407 17.035156 1.019531 36.585937 18.042968 43.628906 8.734375 3.621094 18.136719 3.242188 26.167969-.265625-16.617187-7.273437-24.414063-26.53125-17.433594-43.363281 3.414063-8.269531 9.808594-14.460937 17.433594-17.792969-.234375-.089844-.4375-.175781-.644531-.265625zm0 0" fill="#4bc25f"/><path d="m266.925781 113.429688c-16.816406-6.429688-35.769531 1.691406-42.691406 18.4375-7.066406 17.035156 1.023437 36.554687 18.046875 43.597656 8.207031 3.417968 16.96875 3.300781 24.644531.351562-.289062-.121094-.582031-.238281-.875-.351562-17.023437-7.042969-25.113281-26.5625-18.046875-43.597656 3.652344-8.855469 10.660156-15.285157 18.921875-18.4375zm0 0" fill="#4bc6c0"/><path d="m270.929688 232.53125c-45.234376 38.21875-63.398438 42.078125-53.382813 100.195312-1.167969 12.507813-2.539063 23.085938-3.53125 32.316407-3.824219 34.890625-2.367187 50.40625 34.953125 77.171875 29.523438 36.675781 38.019531 55.988281 68.421875 57.359375 2.304687.089843 4.757813.089843 7.359375 0 6.363281-.261719 13.609375-1.167969 22.015625-2.6875 8.703125.878906 16.410156 1.8125 23.421875 2.6875 19.710938 2.398437 33.464844 3.976562 45.699219 0 12.558593-4.089844 23.535156-14.023438 37.757812-34.859375 45.261719-38.21875 63.394531-42.046875 53.382813-100.167969 5.605468-59.8125 15.796875-75.679687-31.421875-109.519531-37.292969-46.339844-41.03125-64.925782-97.800781-54.667969-6.539063-.644531-12.585938-1.347656-18.132813-2.019531-43.917969-5.316406-59.425781-8.734375-88.742187 34.191406zm0 0" fill="#bf572e"/><path d="m382.128906 281.972656c-7.039062 17.035156 1.050782 36.554688 18.074219 43.625 17.023437 7.042969 36.53125-1.050781 43.570313-18.085937 7.066406-17.035157-1.023438-36.554688-18.046876-43.597657-17.023437-7.070312-36.5625 1.023438-43.597656 18.058594zm0 0" fill="#9bdeda"/><path d="m424.847656 263.5625c-16.816406-6.425781-35.800781 1.667969-42.71875 18.410156-7.039062 17.035156 1.050782 36.554688 18.074219 43.625 8.175781 3.390625 16.96875 3.273438 24.644531.351563-.289062-.117188-.582031-.234375-.875-.351563-17.023437-7.070312-25.109375-26.589844-18.074218-43.625 3.648437-8.824218 10.65625-15.253906 18.949218-18.410156zm0 0" fill="#4bc6c0"/><path d="m396.582031 377.492188c-17.023437-7.039063-36.53125 1.054687-43.597656 18.089843-7.035156 17.035157 1.050781 36.554688 18.074219 43.625 17.027344 7.042969 36.53125-1.050781 43.570312-18.085937 7.066406-17.039063-1.019531-36.554688-18.046875-43.628906zm0 0" fill="#8edb74"/><path d="m396.582031 377.492188c-17.023437-7.039063-36.53125 1.054687-43.597656 18.089843-7.035156 17.035157 1.050781 36.554688 18.074219 43.625 8.734375 3.59375 18.105468 3.242188 26.136718-.292969-16.585937-7.246093-24.382812-26.5-17.433593-43.332031 3.445312-8.300781 9.8125-14.464843 17.433593-17.796875-.203124-.117187-.40625-.203125-.613281-.292968zm0 0" fill="#4bc25f"/><path d="m317.066406 282.148438c-17.023437-7.042969-36.5625 1.050781-43.597656 18.085937-7.039062 17.035156 1.050781 36.554687 18.074219 43.628906 16.996093 7.039063 36.53125-1.054687 43.570312-18.089843 7.039063-17.035157-1.023437-36.554688-18.046875-43.625zm0 0" fill="#f57e9c"/><path d="m317.066406 282.148438c-17.023437-7.042969-36.5625 1.050781-43.597656 18.085937-7.039062 17.035156 1.050781 36.554687 18.074219 43.628906 8.730469 3.59375 18.105469 3.242188 26.136719-.292969-16.589844-7.25-24.382813-26.503906-17.433594-43.335937 3.414062-8.296875 9.808594-14.464844 17.433594-17.792969-.203126-.117187-.40625-.207031-.613282-.292968zm0 0" fill="#ce4d78"/><path d="m270.929688 232.53125c-44.125 37.285156-62.492188 41.84375-54.054688 96.019531.207031 1.371094.441406 2.746094.671875 4.175781-1.167969 12.507813-2.539063 23.085938-3.53125 32.316407-3.824219 34.890625-2.367187 50.40625 34.953125 77.171875 29.523438 36.675781 38.019531 55.988281 68.421875 57.359375 2.304687.089843 4.757813.089843 7.359375 0 5.75-.234375 12.261719-.992188 19.679688-2.25-51.425782-24.894531-87.925782-75.941407-92.480469-135.960938-.320313-4.207031-.496094-8.445312-.496094-12.742187 0-67.820313 40.734375-126.085938 98.933594-151.417969-37-4.441406-52.300781-4.414063-79.457031 35.328125zm0 0" fill="#992b00"/></g></svg>