<?xml version="1.0" encoding="UTF-8" standalone="no"?>
<svg
   xmlns:dc="http://purl.org/dc/elements/1.1/"
   xmlns:cc="http://creativecommons.org/ns#"
   xmlns:rdf="http://www.w3.org/1999/02/22-rdf-syntax-ns#"
   xmlns:svg="http://www.w3.org/2000/svg"
   xmlns="http://www.w3.org/2000/svg"
   xmlns:sodipodi="http://sodipodi.sourceforge.net/DTD/sodipodi-0.dtd"
   xmlns:inkscape="http://www.inkscape.org/namespaces/inkscape"
   version="1.1"
   x="0px"
   y="0px"
   viewBox="0 0 77.300003 83.900002"
   xml:space="preserve"
   id="svg949"
   sodipodi:docname="communities.svg"
   width="77.300003"
   height="83.900002"
   inkscape:version="0.92.2 5c3e80d, 2017-08-06"><metadata
     id="metadata955"><rdf:RDF><cc:Work
         rdf:about=""><dc:format>image/svg+xml</dc:format><dc:type
           rdf:resource="http://purl.org/dc/dcmitype/StillImage" /></cc:Work></rdf:RDF></metadata><defs
     id="defs953" /><sodipodi:namedview
     pagecolor="#ffffff"
     bordercolor="#666666"
     borderopacity="1"
     objecttolerance="10"
     gridtolerance="10"
     guidetolerance="10"
     inkscape:pageopacity="0"
     inkscape:pageshadow="2"
     inkscape:window-width="738"
     inkscape:window-height="480"
     id="namedview951"
     showgrid="false"
     inkscape:zoom="1.888"
     inkscape:cx="35.3"
     inkscape:cy="32.7"
     inkscape:window-x="0"
     inkscape:window-y="0"
     inkscape:window-maximized="0"
     inkscape:current-layer="svg949" /><path
     d="M 77.3,2 C 77.3,0.9 76.4,0 75.3,0 56.1,0 40.4,15.4 40,34.5 35.2,39.5 32,45.7 30.7,52.4 29.8,50.8 28.6,49.2 27.3,47.8 26.9,34.2 15.7,23.3 2,23.3 0.9,23.3 0,24.2 0,25.3 0,39 10.9,50.1 24.4,50.6 28,54.5 30,59.4 30,64.7 v 17.2 c 0,1.1 0.9,2 2,2 1.1,0 2,-0.9 2,-2 V 59.5 C 34,51.2 37.2,43.3 42.9,37.3 61.9,36.9 77.3,21.2 77.3,2 Z M 4.1,27.5 c 10.1,1 18.1,9 19.1,19.1 C 13.1,45.6 5.1,37.6 4.1,27.5 Z M 44,33.3 C 45,17.7 57.6,5.1 73.2,4.1 72.2,19.7 59.7,32.3 44,33.3 Z"
     id="path943"
     inkscape:connector-curvature="0" /></svg>