<?xml version="1.0" encoding="UTF-8" standalone="no"?>
<svg
   xmlns:dc="http://purl.org/dc/elements/1.1/"
   xmlns:cc="http://creativecommons.org/ns#"
   xmlns:rdf="http://www.w3.org/1999/02/22-rdf-syntax-ns#"
   xmlns:svg="http://www.w3.org/2000/svg"
   xmlns="http://www.w3.org/2000/svg"
   xmlns:sodipodi="http://sodipodi.sourceforge.net/DTD/sodipodi-0.dtd"
   xmlns:inkscape="http://www.inkscape.org/namespaces/inkscape"
   data-name="Layer 1"
   viewBox="0 0 76.968269 90.011887"
   x="0px"
   y="0px"
   version="1.1"
   id="svg10"
   sodipodi:docname="noun_Bell_2074460.svg"
   width="76.968269"
   height="90.011887"
   inkscape:version="0.92.2 5c3e80d, 2017-08-06">
  <metadata
     id="metadata16">
    <rdf:RDF>
      <cc:Work
         rdf:about="">
        <dc:format>image/svg+xml</dc:format>
        <dc:type
           rdf:resource="http://purl.org/dc/dcmitype/StillImage" />
      </cc:Work>
    </rdf:RDF>
  </metadata>
  <defs
     id="defs14" />
  <sodipodi:namedview
     pagecolor="#ffffff"
     bordercolor="#666666"
     borderopacity="1"
     objecttolerance="10"
     gridtolerance="10"
     guidetolerance="10"
     inkscape:pageopacity="0"
     inkscape:pageshadow="2"
     inkscape:window-width="740"
     inkscape:window-height="480"
     id="namedview12"
     showgrid="false"
     inkscape:zoom="1.888"
     inkscape:cx="38.484135"
     inkscape:cy="32.50006"
     inkscape:window-x="0"
     inkscape:window-y="0"
     inkscape:window-maximized="0"
     inkscape:current-layer="svg10" />
  <title
     id="title2">A</title>
  <path
     d="M 6.6711346,79.296006 H 27.041565 a 11.46721,11.46721 0 0 0 22.88514,0 h 20.37091 c 3.59863,0 6.19384,-2.11182 6.61084,-5.38086 0.42089,-3.29932 -1.41309,-5.584 -4.44043,-9.03809 -7.40235,-8.4375 -7.92627,-14.23388 -8.49073,-27.68945 -0.53753,-12.82233 -8.33117,-21.6524 -20.30322,-23.60852 a 7.78132,7.78132 0 1 0 -10.37976,0 c -11.97218,1.95612 -19.76581,10.78626 -20.30334,23.60901 -0.564,13.45508 -1.08789,19.25146 -8.4907304,27.689 -3.02734,3.45411 -4.86131999,5.73877 -4.44042999,9.03858 0.41797,3.26851 3.01318999,5.38033 6.61131999,5.38033 z m 31.8130004,6.71582 a 7.49283,7.49283 0 0 1 -7.44214,-6.71582 h 14.88428 a 7.49283,7.49283 0 0 1 -7.44214,6.71582 z m -2.4e-4,-82.0004904 a 3.78125,3.78125 0 1 1 -3.78125,3.78125 3.78557,3.78557 0 0 1 3.78125,-3.78125 z M 16.987065,37.355576 c 0.62451,-14.88721 11.51416,-20.19141 21.49707,-20.19141 9.98291,0 20.87256,5.3042 21.49707,20.19141 0.45587,10.87939 0.97,17.54456 5.26953,24.52832 h -53.533 c 4.30015,-6.98431 4.81382,-13.64929 5.26933,-24.52832 z m -9.4794904,30.15869 c 0.484,-0.55151 0.93664,-1.09344 1.36981,-1.63037 H 68.090885 c 0.433,0.53674 0.88556,1.07849 1.36932,1.62988 3.00391,3.42774 3.65479,4.52979 3.48047,5.895 -0.19922,1.56006 -1.54736,1.88721 -2.64306,1.88721 H 6.6711346 c -1.0957,0 -2.44433,-0.32764 -2.64355,-1.88672 -0.17431,-1.3657 0.47655,-2.46775 3.47999,-5.895 z"
     id="path4"
     inkscape:connector-curvature="0" />
</svg>
