<?xml version="1.0" encoding="iso-8859-1"?>
<!-- Generator: Adobe Illustrator 19.0.0, SVG Export Plug-In . SVG Version: 6.00 Build 0)  -->
<svg version="1.1" id="Capa_1" xmlns="http://www.w3.org/2000/svg" xmlns:xlink="http://www.w3.org/1999/xlink" x="0px" y="0px"
	 viewBox="0 0 512 512" style="enable-background:new 0 0 512 512;" xml:space="preserve">
<path style="fill:#D8D7DA;" d="M336.943,124.879l-24.787,46.443l-8.935,16.74l-15.134,28.381l-0.232,0.424
	c-3.352,6.29-10.339,8.229-16.073,6.209c-3.544-1.232-6.603-3.978-8.027-8.138l-33.853-98.611
	c-7.633-22.232-1.04-45.09,13.721-60.073c4.826-4.897,10.531-8.955,16.891-11.863c9.131-4.182,19.285-6.062,32.298-4.543
	C333.349,44.269,356.136,88.905,336.943,124.879z"/>
<path style="fill:#C6C5CA;" d="M312.156,171.322l-8.935,16.74l-15.134,28.381l-0.232,0.424c-3.352,6.29-10.339,8.229-16.073,6.209
	c-3.544-1.232-6.603-3.978-8.027-8.138l-33.853-98.611c-7.633-22.232-1.04-45.09,13.721-60.073
	c4.826-4.897,10.531-8.955,16.891-11.863c19.001,9.581,33.883,27.644,38.073,51.057L312.156,171.322z"/>
<path style="fill:#D8D7DA;" d="M286.004,208.148l-17.518-97.931c-6.92-38.685-51.553-60.358-87.93-34.585
	c-31.749,22.494-30.05,70.28,2.647,91.372l83.6,53.93C276.039,226.893,287.939,218.97,286.004,208.148z"/>
<path style="fill:#1D1D1F;" d="M487.566,126.867c-7.809-6.306-19.251-5.089-25.557,2.719c-3.118,3.86-4.39,8.608-3.943,13.185
	c0.897,7.297,7.196,12.761,7.196,12.761c7.788,5.841,18.856,4.527,25.023-3.108C496.592,144.616,495.374,133.174,487.566,126.867z"
	/>
<path style="fill:#2D2D30;" d="M128.12,265.329v112.595l-60.346-26.442l-3.897-1.706l-12.62-5.533L19.13,330.168
	c-7.441-3.261-7.441-13.822,0-17.083l32.642-14.307l12.106-5.301l2.958-1.292L128.12,265.329z"/>
<path style="fill:#1D1D1F;" d="M128.12,265.329v112.595l-60.346-26.442l-3.897-1.706l-12.62-5.533
	c-1.424-6.956-2.161-14.155-2.161-21.525c0-8.229,0.919-16.245,2.676-23.938l12.106-5.301l2.958-1.292L128.12,265.329z"/>
<path id="SVGCleanerId_0" style="fill:#EEBF00;" d="M503.321,321.627c0,19.526-5.23,37.892-14.347,53.763
	c-4.826,8.4-10.732,16.104-17.547,22.909c-19.678,19.668-46.817,31.884-76.662,31.884H190.939
	c-59.71,0-108.556-48.846-108.556-108.556c0-29.855,12.217-56.994,31.884-76.672c3.372-3.372,6.956-6.522,10.743-9.41
	c18.315-14.084,41.183-22.475,65.929-22.475h203.826C454.465,213.07,503.321,261.917,503.321,321.627z"/>
<g>
	<path id="SVGCleanerId_0_1_" style="fill:#EEBF00;" d="M503.321,321.627c0,19.526-5.23,37.892-14.347,53.763
		c-4.826,8.4-10.732,16.104-17.547,22.909c-19.678,19.668-46.817,31.884-76.662,31.884H190.939
		c-59.71,0-108.556-48.846-108.556-108.556c0-29.855,12.217-56.994,31.884-76.672c3.372-3.372,6.956-6.522,10.743-9.41
		c18.315-14.084,41.183-22.475,65.929-22.475h203.826C454.465,213.07,503.321,261.917,503.321,321.627z"/>
</g>
<path style="fill:#FFD422;" d="M503.321,321.627c0,19.526-5.23,37.892-14.347,53.763c-18.305,14.084-41.193,22.485-65.939,22.485
	H219.209c-59.71,0-108.556-48.846-108.556-108.556c0-19.526,5.23-37.902,14.357-53.773c18.315-14.084,41.183-22.475,65.929-22.475
	h203.826C454.465,213.07,503.321,261.917,503.321,321.627z"/>
<g>
	<rect x="208.106" y="213.074" style="fill:#3E3D42;" width="47.635" height="217.112"/>
	<rect x="329.97" y="213.074" style="fill:#3E3D42;" width="47.625" height="217.112"/>
</g>
<g>
	<path style="fill:#1D1D1F;" d="M255.738,397.905v32.278h-47.635v-32.884c3.655,0.404,7.36,0.606,11.106,0.606H255.738z"/>
	<rect x="329.97" y="397.877" style="fill:#1D1D1F;" width="47.625" height="32.308"/>
</g>
<path d="M487.372,250.182c-2.575-3.302-7.34-3.877-10.631-1.313c-3.301,2.575-3.887,7.34-1.313,10.632
	c30.92,39.577,28.473,96.481-8.289,133.262c-35.032,34.995-76.962,28.989-80.912,29.663V220.458
	c4.937,0.644,36.615-4.266,69.029,19.476c1.343,0.989,2.908,1.464,4.463,1.464c7.28,0,10.397-9.342,4.483-13.681
	c-14.367-10.52-30.602-17.477-47.756-20.576c0,0-0.001,0-0.002,0c8.097-17.889,21.183-37.992,41.327-47.841
	c12.869,12.8,34.55,8.67,41.788-7.948c1.67-3.835-0.084-8.296-3.918-9.966c-3.835-1.671-8.296,0.084-9.966,3.918
	c-1.622,3.73-5.348,6.371-9.736,6.371c-8.941,0-13.781-10.398-8.238-17.262c2.864-3.547,7.507-4.735,11.534-3.425
	c3.976,1.296,8.25-0.876,9.546-4.853c1.295-3.976-0.876-8.25-4.853-9.546c-18.512-6.034-36.946,9.982-33.258,29.338
	c-25.532,12.689-41.022,38.165-49.949,59.386h-69.69h-27.462l41.112-77.055c5.179-9.693,7.805-20.112,7.805-30.966
	c0-64.821-83.883-89.436-120.167-38.306c-5.573-1.605-11.439-2.464-17.487-2.464c-30.814,0-63.658,25.272-63.658,63.375
	c0,21.657,10.833,41.577,28.987,53.289l31.894,20.576c3.514,2.262,8.198,1.252,10.47-2.262s1.252-8.198-2.262-10.47l-31.894-20.576
	c-13.802-8.905-22.05-24.07-22.05-40.557c0-35.934,40.482-60.493,72.664-41.708c11.843,6.916,20.546,18.82,23.111,33.177
	l16.81,93.947h-21c-0.004-0.002-0.011-0.007-0.02-0.013c-0.215-0.138-2.15-1.387-12.166-7.852
	c-5.658-3.642-12.853,1.375-11.52,7.865h-25.029h-17.164c-13.206,0-26.17,2.231-38.548,6.613c-3.948,1.403-6.007,5.725-4.604,9.672
	c1.393,3.938,5.725,5.997,9.662,4.604c21.131-7.48,36.999-5.38,43.081-5.745v142.116c0,4.18,3.392,7.572,7.572,7.572
	c4.18,0,7.572-3.392,7.572-7.572V220.458h32.49v201.968c-18.05,0-14.167,0-32.49,0v-29.562c0-4.18-3.392-7.572-7.572-7.572
	c-4.18,0-7.572,3.392-7.572,7.572v29.562h-9.592c-35.408,0-66.616-18.315-84.648-45.979
	c-29.283-44.891-18.477-105.339,26.251-137.26c3.413-2.433,4.2-7.158,1.777-10.561c-2.433-3.413-7.158-4.2-10.561-1.777
	c-5.27,3.756-10.268,7.986-14.852,12.57c-10.763,10.773-19.153,23.242-24.908,36.791L7.3,310.275c-4.432,1.949-7.3,6.33-7.3,11.167
	c0,4.836,2.867,9.218,7.3,11.167l77.742,34.065c17.669,41.627,58.963,70.897,106.961,70.897c12.653,0,22.771,0,35.78,0v35.317
	c0,4.183,3.39,7.572,7.572,7.572s7.572-3.389,7.572-7.572V437.57h23.894v35.317c0,4.183,3.389,7.572,7.572,7.572
	c4.183,0,7.572-3.389,7.572-7.572V437.57h23.894v35.317c0,4.183,3.389,7.572,7.572,7.572c4.183,0,7.572-3.389,7.572-7.572V437.57
	c8.831,0,15.977,0,23.895,0v35.317c0,4.183,3.389,7.572,7.572,7.572s7.572-3.389,7.572-7.572V437.57c12.685,0,23.337,0,35.785,0
	C492.044,437.57,546.702,326.16,487.372,250.182z M78.802,347.4l-59.245-25.958l59.245-25.958
	C74.919,312.349,74.875,330.305,78.802,347.4z M277.004,108.701c-3.372-18.85-14.801-34.479-30.36-43.576
	c29.237-36.03,90.696-16.2,90.696,32.167c0,8.34-2.029,16.356-6.017,23.838l-39.012,73.118L277.004,108.701z M371.082,422.426
	h-32.48v-29.572c0-4.18-3.382-7.572-7.572-7.572c-4.18,0-7.572,3.392-7.572,7.572v29.572h-59.084c0-2.758,0-191.584,0-201.968
	h31.107h27.977v142.106c0,4.18,3.392,7.572,7.572,7.572c4.19,0,7.572-3.392,7.572-7.572V220.458h32.48L371.082,422.426
	L371.082,422.426z"/>
<circle cx="432.821" cy="287.272" r="14.058"/>
<g>
</g>
<g>
</g>
<g>
</g>
<g>
</g>
<g>
</g>
<g>
</g>
<g>
</g>
<g>
</g>
<g>
</g>
<g>
</g>
<g>
</g>
<g>
</g>
<g>
</g>
<g>
</g>
<g>
</g>
</svg>
