<?xml version="1.0" encoding="UTF-8" standalone="no"?>
<!-- Generator: Adobe Illustrator 16.0.0, SVG Export Plug-In . SVG Version: 6.00 Build 0)  -->

<svg
   xmlns:dc="http://purl.org/dc/elements/1.1/"
   xmlns:cc="http://creativecommons.org/ns#"
   xmlns:rdf="http://www.w3.org/1999/02/22-rdf-syntax-ns#"
   xmlns:svg="http://www.w3.org/2000/svg"
   xmlns="http://www.w3.org/2000/svg"
   xmlns:sodipodi="http://sodipodi.sourceforge.net/DTD/sodipodi-0.dtd"
   xmlns:inkscape="http://www.inkscape.org/namespaces/inkscape"
   version="1.1"
   id="Capa_1"
   x="0px"
   y="0px"
   width="45.973866"
   height="45.327747"
   viewBox="0 0 45.973867 45.327749"
   xml:space="preserve"
   sodipodi:docname="bee_1.svg"
   inkscape:version="0.92.2 5c3e80d, 2017-08-06"><metadata
     id="metadata43"><rdf:RDF><cc:Work
         rdf:about=""><dc:format>image/svg+xml</dc:format><dc:type
           rdf:resource="http://purl.org/dc/dcmitype/StillImage" /></cc:Work></rdf:RDF></metadata><defs
     id="defs41" /><sodipodi:namedview
     pagecolor="#ffffff"
     bordercolor="#666666"
     borderopacity="1"
     objecttolerance="10"
     gridtolerance="10"
     guidetolerance="10"
     inkscape:pageopacity="0"
     inkscape:pageshadow="2"
     inkscape:window-width="1589"
     inkscape:window-height="811"
     id="namedview39"
     showgrid="false"
     inkscape:zoom="5.6568542"
     inkscape:cx="22.987204"
     inkscape:cy="22.6635"
     inkscape:window-x="0"
     inkscape:window-y="0"
     inkscape:window-maximized="0"
     inkscape:current-layer="Capa_1" /><g
     id="g6"
     style="fill:#888888;fill-opacity:1"
     transform="translate(-2.9456065e-4,-0.32325411)"><g
       id="g4"
       style="fill:#888888;fill-opacity:1"><path
         d="M 44.168,24.877 33.837,13.609 33.806,13.638 C 33.556,11.559 32.718,9.658 31.464,8.105 L 34.902,3.487 C 35.553,2.61 35.374,1.368 34.496,0.715 33.616,0.062 32.377,0.244 31.723,1.122 L 28.452,5.518 C 26.841,4.579 24.968,4.039 22.973,4.039 c -1.984,0 -3.848,0.533 -5.453,1.464 L 14.259,1.122 C 13.607,0.244 12.364,0.062 11.486,0.715 10.609,1.369 10.426,2.611 11.08,3.487 l 3.42,4.595 c -1.263,1.553 -2.105,3.458 -2.358,5.542 L 12.125,13.609 1.806,24.877 c -1.241,1.354 -1.879,3.113 -1.799,4.951 0.081,1.837 0.874,3.532 2.229,4.774 1.273,1.166 2.926,1.81 4.651,1.81 0.101,0 0.202,-0.002 0.302,-0.007 1.838,-0.08 3.533,-0.871 4.776,-2.229 l 0.706,-0.772 c 1.277,3.645 4.438,6.409 8.346,7.117 v 3.149 c 0,1.094 0.896,1.981 1.991,1.981 1.095,0 1.989,-0.889 1.989,-1.981 v -3.157 c 3.858,-0.719 7.012,-3.488 8.281,-7.135 l 0.731,0.798 c 1.241,1.356 2.939,2.147 4.776,2.229 0.101,0.004 0.201,0.007 0.303,0.007 1.727,0 3.377,-0.645 4.65,-1.81 1.354,-1.242 2.146,-2.938 2.229,-4.775 0.083,-1.837 -0.558,-3.596 -1.799,-4.95 z M 9.764,32.169 C 9.057,32.94 8.098,33.391 7.055,33.437 L 6.885,33.44 C 5.906,33.44 4.967,33.076 4.245,32.414 3.473,31.707 3.023,30.744 2.978,29.701 2.933,28.657 3.296,27.658 4.002,26.889 l 8.058,-8.808 v 11.577 z m 20.137,-2.378 h -13.86 v -4.977 h 13.86 z m 0,-9.88 h -13.86 v -4.976 h 13.86 z m 13.096,9.786 c -0.045,1.044 -0.494,2.008 -1.267,2.714 -0.724,0.663 -1.66,1.026 -2.642,1.026 L 38.916,33.434 C 37.873,33.388 36.9,32.939 36.196,32.167 L 33.879,29.644 V 18.058 l 8.091,8.826 c 0.708,0.771 1.073,1.77 1.027,2.813 z"
         id="path2"
         style="fill:#888888;fill-opacity:1"
         inkscape:connector-curvature="0" /></g></g><g
     id="g8"
     transform="translate(-2.9474493e-4,-0.32325355)" /><g
     id="g10"
     transform="translate(-2.9474493e-4,-0.32325355)" /><g
     id="g12"
     transform="translate(-2.9474493e-4,-0.32325355)" /><g
     id="g14"
     transform="translate(-2.9474493e-4,-0.32325355)" /><g
     id="g16"
     transform="translate(-2.9474493e-4,-0.32325355)" /><g
     id="g18"
     transform="translate(-2.9474493e-4,-0.32325355)" /><g
     id="g20"
     transform="translate(-2.9474493e-4,-0.32325355)" /><g
     id="g22"
     transform="translate(-2.9474493e-4,-0.32325355)" /><g
     id="g24"
     transform="translate(-2.9474493e-4,-0.32325355)" /><g
     id="g26"
     transform="translate(-2.9474493e-4,-0.32325355)" /><g
     id="g28"
     transform="translate(-2.9474493e-4,-0.32325355)" /><g
     id="g30"
     transform="translate(-2.9474493e-4,-0.32325355)" /><g
     id="g32"
     transform="translate(-2.9474493e-4,-0.32325355)" /><g
     id="g34"
     transform="translate(-2.9474493e-4,-0.32325355)" /><g
     id="g36"
     transform="translate(-2.9474493e-4,-0.32325355)" /></svg>