<?xml version="1.0" encoding="UTF-8" standalone="no"?>
<svg
   xmlns:dc="http://purl.org/dc/elements/1.1/"
   xmlns:cc="http://creativecommons.org/ns#"
   xmlns:rdf="http://www.w3.org/1999/02/22-rdf-syntax-ns#"
   xmlns:svg="http://www.w3.org/2000/svg"
   xmlns="http://www.w3.org/2000/svg"
   xmlns:sodipodi="http://sodipodi.sourceforge.net/DTD/sodipodi-0.dtd"
   xmlns:inkscape="http://www.inkscape.org/namespaces/inkscape"
   version="1.1"
   x="0px"
   y="0px"
   viewBox="0 0 89.456841 86.000145"
   enable-background="new 0 0 100 100"
   xml:space="preserve"
   id="svg8"
   sodipodi:docname="bee_logo_3.svg"
   width="89.456841"
   height="86.000145"
   inkscape:version="0.92.2 5c3e80d, 2017-08-06"><metadata
     id="metadata14"><rdf:RDF><cc:Work
         rdf:about=""><dc:format>image/svg+xml</dc:format><dc:type
           rdf:resource="http://purl.org/dc/dcmitype/StillImage" /></cc:Work></rdf:RDF></metadata><defs
     id="defs12" /><sodipodi:namedview
     pagecolor="#ffffff"
     bordercolor="#666666"
     borderopacity="1"
     objecttolerance="10"
     gridtolerance="10"
     guidetolerance="10"
     inkscape:pageopacity="0"
     inkscape:pageshadow="2"
     inkscape:window-width="740"
     inkscape:window-height="480"
     id="namedview10"
     showgrid="false"
     inkscape:zoom="1.888"
     inkscape:cx="44.7292"
     inkscape:cy="30.499999"
     inkscape:window-x="0"
     inkscape:window-y="0"
     inkscape:window-maximized="0"
     inkscape:current-layer="svg8" /><path
     d="m 85.9422,45.351144 c -0.043,-0.054 -0.089,-0.105 -0.138,-0.154 l -16.388,-16.602 c -0.774,-0.785 -2.042,-0.794 -2.828,-0.018 -0.786,0.776 -0.794,2.042 -0.018,2.829 l 16.312,16.525 c 1.96,2.485 2.848,5.581 2.501,8.73 -0.35,3.182 -1.918,6.037 -4.416,8.039 -5.155,4.136 -12.713,3.303 -16.847,-1.854 l -0.88,-1.097 c -0.125,-0.156 -0.273,-0.279 -0.429,-0.387 0.266,-1.247 0.412,-2.537 0.412,-3.862 v -33 c 0,-5.23 -2.191,-9.95 -5.692,-13.318 0.065,-0.087 0.137,-0.166 0.188,-0.265 l 4.125,-8 c 0.507,-0.981 0.121,-2.18799997 -0.86,-2.69399997 -0.984,-0.505 -2.189,-0.121 -2.694,0.86099997 l -3.943,7.647 c -2.807,-1.721 -6.095,-2.731 -9.622,-2.731 -3.527,0 -6.816,1.01 -9.624,2.73 l -3.943,-7.647 c -0.505,-0.98099997 -1.709,-1.36599997 -2.694,-0.86099997 -0.981,0.506 -1.367,1.71299997 -0.86,2.69399997 l 4.125,8 c 0.051,0.099 0.123,0.178 0.188,0.265 -3.501,3.368 -5.692,8.088 -5.692,13.318 v 33 c 0,1.325 0.146,2.616 0.412,3.863 -0.156,0.108 -0.304,0.231 -0.429,0.386 l -0.88,1.098 c -2.002,2.498 -4.857,4.066 -8.039,4.416 -3.184,0.348 -6.31,-0.561 -8.8079997,-2.563 -5.13,-4.113 -5.979,-11.615 -1.915,-16.769 L 22.8792,31.405144 c 0.776,-0.786 0.769,-2.053 -0.018,-2.829 -0.785,-0.775 -2.053,-0.768 -2.828,0.018 l -16.3889997,16.603 c -0.049,0.049 -0.095,0.101 -0.138,0.154 -5.513,6.876 -4.40299996,16.956 2.473,22.47 2.864,2.296 6.3499997,3.516 9.9679997,3.516 0.59,0 1.184,-0.032 1.779,-0.098 4.097,-0.451 7.776,-2.427 10.43,-5.558 2.744,5.535 8.163,9.515 14.568,10.207 v 8.112 c 0,1.104 0.896,2 2,2 1.104,0 2,-0.896 2,-2 v -8.113 c 6.407,-0.692 11.827,-4.674 14.57,-10.211 3.145,3.708 7.644,5.652 12.192,5.652 3.508,0 7.039,-1.146 9.982,-3.507 3.331,-2.671 5.423,-6.479 5.89,-10.723 0.469,-4.244 -0.745,-8.416 -3.416,-11.747 z m -26.717,-6.351 h -29 v -8 h 29 z m -29,4 h 29 v 8 h -29 z m 14.5,-33 c 7.995,0 14.5,6.505 14.5,14.5 v 2.5 h -29 v -2.5 c 0,-7.995 6.504,-14.5 14.5,-14.5 z m 0,62 c -7.995,0 -14.5,-6.505 -14.5,-14.5 v -2.5 h 29 v 2.5 c 0,7.995 -6.505,14.5 -14.5,14.5 z"
     id="path2"
     inkscape:connector-curvature="0"
     style="fill:#900202;fill-opacity:1" /></svg>