<?xml version="1.0" encoding="UTF-8" standalone="no"?>
<svg
   xmlns:dc="http://purl.org/dc/elements/1.1/"
   xmlns:cc="http://creativecommons.org/ns#"
   xmlns:rdf="http://www.w3.org/1999/02/22-rdf-syntax-ns#"
   xmlns:svg="http://www.w3.org/2000/svg"
   xmlns="http://www.w3.org/2000/svg"
   xmlns:sodipodi="http://sodipodi.sourceforge.net/DTD/sodipodi-0.dtd"
   xmlns:inkscape="http://www.inkscape.org/namespaces/inkscape"
   version="1.1"
   x="0px"
   y="0px"
   viewBox="0 0 84.001472 84.001701"
   enable-background="new 0 0 100 100"
   xml:space="preserve"
   id="svg8"
   sodipodi:docname="communities-hover.svg"
   width="84.001472"
   height="84.001701"
   inkscape:version="0.92.2 5c3e80d, 2017-08-06"><metadata
     id="metadata14"><rdf:RDF><cc:Work
         rdf:about=""><dc:format>image/svg+xml</dc:format><dc:type
           rdf:resource="http://purl.org/dc/dcmitype/StillImage" /><dc:title></dc:title></cc:Work></rdf:RDF></metadata><defs
     id="defs12" /><sodipodi:namedview
     pagecolor="#ffffff"
     bordercolor="#666666"
     borderopacity="1"
     objecttolerance="10"
     gridtolerance="10"
     guidetolerance="10"
     inkscape:pageopacity="0"
     inkscape:pageshadow="2"
     inkscape:window-width="1135"
     inkscape:window-height="620"
     id="namedview10"
     showgrid="false"
     inkscape:zoom="1.888"
     inkscape:cx="-53.867951"
     inkscape:cy="29.501698"
     inkscape:window-x="0"
     inkscape:window-y="0"
     inkscape:window-maximized="0"
     inkscape:current-layer="svg8" /><path
     d="m 2.1186925,78.133 c -1.58299998,0.486 -2.47299998,2.165 -1.98499998,3.749 0.486,1.585 2.16799998,2.465 3.74899998,1.985 C 15.653693,80.246 25.635693,78 39.000693,78 c 13.808,0 29.178,2.193 41.118,5.867 1.591,0.493 3.267,-0.412 3.749,-1.985 0.488,-1.583 -0.401,-3.262 -1.985,-3.749 -11.622,-3.577 -26.309,-5.785 -39.882,-6.075 V 41.976 c 11.724,-0.112 23.542,-1.204 31.953,-8.414 9.278,-7.954 10.047,-18.996 10.047,-30.562 0,-1.657 -1.343,-3 -3,-3 -9.574,0 -23.051,1.771 -32.89,10.204 -6.394,5.482 -9.429,12.622 -10.861,18.565 -1.432,-2.573 -3.29,-5.076 -5.703,-7.289 -8.548,-7.835 -20.242,-9.48 -28.5460005,-9.48 -1.657,0 -2.99999998256,1.343 -2.99999998256,3 0,10.633 0.66500000256,20.786 8.68699998256,28.14 7.2300005,6.628 17.2940005,7.706 27.3130005,7.834 v 21.09 c -12.618,0.312 -22.477,2.559 -33.8820005,6.069 z M 52.015693,14.76 c 7.491,-6.422 17.761,-8.344 25.961,-8.695 -0.16,9.221 -1.299,17.26 -7.929,22.942 -6.889,5.906 -17.376,6.872 -27.917,6.981 0.45,-5.324 2.354,-14.773 9.885,-21.228 z m -39.274,23.956 C 7.1836925,33.623 6.1776925,26.389 6.0256925,18.082 c 6.8530005,0.374 15.2870005,2.158 21.4660005,7.822 6.284,5.76 7.957,14.175 8.377,19.08 -8.771,-0.126 -17.442,-1.055 -23.127,-6.268 z"
     id="path2"
     inkscape:connector-curvature="0"
     style="stroke:none;stroke-opacity:0.822335;fill:#ce1717;fill-opacity:1;opacity:0.94" /></svg>