<?xml version="1.0" encoding="UTF-8" standalone="no"?>
<svg
   xmlns:dc="http://purl.org/dc/elements/1.1/"
   xmlns:cc="http://creativecommons.org/ns#"
   xmlns:rdf="http://www.w3.org/1999/02/22-rdf-syntax-ns#"
   xmlns:svg="http://www.w3.org/2000/svg"
   xmlns="http://www.w3.org/2000/svg"
   xmlns:sodipodi="http://sodipodi.sourceforge.net/DTD/sodipodi-0.dtd"
   xmlns:inkscape="http://www.inkscape.org/namespaces/inkscape"
   version="1.1"
   x="0px"
   y="0px"
   viewBox="0 0 90.004677 83.998001"
   enable-background="new 0 0 100 100"
   xml:space="preserve"
   id="svg36"
   sodipodi:docname="home-hover.svg"
   width="90.004677"
   height="83.998001"
   inkscape:version="0.92.2 5c3e80d, 2017-08-06"><metadata
     id="metadata42"><rdf:RDF><cc:Work
         rdf:about=""><dc:format>image/svg+xml</dc:format><dc:type
           rdf:resource="http://purl.org/dc/dcmitype/StillImage" /><dc:title></dc:title></cc:Work></rdf:RDF></metadata><defs
     id="defs40" /><sodipodi:namedview
     pagecolor="#ffffff"
     bordercolor="#666666"
     borderopacity="1"
     objecttolerance="10"
     gridtolerance="10"
     guidetolerance="10"
     inkscape:pageopacity="0"
     inkscape:pageshadow="2"
     inkscape:window-width="742"
     inkscape:window-height="480"
     id="namedview38"
     showgrid="false"
     inkscape:zoom="1.888"
     inkscape:cx="-30.738442"
     inkscape:cy="50.686441"
     inkscape:window-x="260"
     inkscape:window-y="140"
     inkscape:window-maximized="0"
     inkscape:current-layer="svg36" /><path
     d="m 87.793083,36.313 -35.122,-33.259 c -4.301,-4.072 -11.036,-4.072 -15.337,0 L 2.2980828,36.237 C 0.17408283,38.09 -0.55591717,40.999 0.43808283,43.646 1.4300828,46.29 3.8910828,47.998 6.7080828,47.998 h 2.295 v 33 c 0,1.657 1.3430002,3 3.0000002,3 65.174,0 13.062,0 66,0 1.657,0 3,-1.343 3,-3 v -33 h 2.291 c 2.817,0 5.279,-1.709 6.271,-4.355 0.993,-2.647 0.262,-5.558 -1.772,-7.33 z m -51.79,41.685 v -15 c 0,-4.963 4.037,-9 9,-9 4.963,0 9,4.037 9,9 v 15 z m 47.291,-36 h -5.291 c -1.657,0 -3,1.343 -3,3 v 33 h -15 v -15 c 0,-8.271 -6.729,-15 -15,-15 -8.271,0 -15,6.729 -15,15 v 15 h -15 v -33 c 0,-1.657 -1.343,-3 -3,-3 H 6.7080828 c -0.597,0 -1.028,-0.748 -0.374,-1.324 L 41.459083,7.41 c 1.986,-1.881 5.101,-1.881 7.087,0 l 35.21,33.341 c 0.492,0.427 0.191,1.247 -0.462,1.247 z"
     id="path30"
     inkscape:connector-curvature="0"
     style="fill:#ce1717;fill-opacity:1" /></svg>