<?xml version="1.0" encoding="UTF-8" standalone="no"?>
<svg
   xmlns:dc="http://purl.org/dc/elements/1.1/"
   xmlns:cc="http://creativecommons.org/ns#"
   xmlns:rdf="http://www.w3.org/1999/02/22-rdf-syntax-ns#"
   xmlns:svg="http://www.w3.org/2000/svg"
   xmlns="http://www.w3.org/2000/svg"
   xmlns:sodipodi="http://sodipodi.sourceforge.net/DTD/sodipodi-0.dtd"
   xmlns:inkscape="http://www.inkscape.org/namespaces/inkscape"
   viewBox="0 0 78.999893 82.124992"
   x="0px"
   y="0px"
   version="1.1"
   id="svg971"
   sodipodi:docname="home.svg"
   width="78.999893"
   height="82.124992"
   inkscape:version="0.92.2 5c3e80d, 2017-08-06">
  <metadata
     id="metadata977">
    <rdf:RDF>
      <cc:Work
         rdf:about="">
        <dc:format>image/svg+xml</dc:format>
        <dc:type
           rdf:resource="http://purl.org/dc/dcmitype/StillImage" />
      </cc:Work>
    </rdf:RDF>
  </metadata>
  <defs
     id="defs975" />
  <sodipodi:namedview
     pagecolor="#ffffff"
     bordercolor="#666666"
     borderopacity="1"
     objecttolerance="10"
     gridtolerance="10"
     guidetolerance="10"
     inkscape:pageopacity="0"
     inkscape:pageshadow="2"
     inkscape:window-width="640"
     inkscape:window-height="480"
     id="namedview973"
     showgrid="false"
     inkscape:zoom="1.888"
     inkscape:cx="39.499947"
     inkscape:cy="27"
     inkscape:window-x="0"
     inkscape:window-y="0"
     inkscape:window-maximized="0"
     inkscape:current-layer="svg971" />
  <title
     id="title963">tech icons 2</title>
  <path
     d="m 78.414007,38.085935 -37.5,-37.49999966 a 1.99927,1.99927 0 0 0 -2.82812,0 L 0.58588745,38.085935 a 1.99982,1.99982 0 0 0 1.41406005,3.41406 h 7.375 v 38.625 a 2.0001,2.0001 0 0 0 1.9999995,2 h 28.125 a 2.0001,2.0001 0 0 0 2,-2 v -26.125 h 11.625 v 26.125 a 2.0001,2.0001 0 0 0 2,2 h 12.5 a 2.0001,2.0001 0 0 0 2,-2 v -38.625 h 7.375 a 1.99982,1.99982 0 0 0 1.41406,-3.41406 z m -10.78906,-0.58594 a 2.0001,2.0001 0 0 0 -2,2 v 38.625 h -8.5 v -26.125 a 2.0001,2.0001 0 0 0 -2,-2 h -15.625 a 2.0001,2.0001 0 0 0 -2,2 v 26.125 h -24.125 v -38.625 a 2.0001,2.0001 0 0 0 -2,-2 H 6.8285575 L 39.499947,4.8281253 72.171827,37.499995 Z"
     id="path965"
     inkscape:connector-curvature="0" />
</svg>
