<?xml version="1.0" encoding="UTF-8" standalone="no"?>
<svg
   xmlns:dc="http://purl.org/dc/elements/1.1/"
   xmlns:cc="http://creativecommons.org/ns#"
   xmlns:rdf="http://www.w3.org/1999/02/22-rdf-syntax-ns#"
   xmlns:svg="http://www.w3.org/2000/svg"
   xmlns="http://www.w3.org/2000/svg"
   xmlns:sodipodi="http://sodipodi.sourceforge.net/DTD/sodipodi-0.dtd"
   xmlns:inkscape="http://www.inkscape.org/namespaces/inkscape"
   viewBox="0 0 66.499893 66.5"
   x="0px"
   y="0px"
   version="1.1"
   id="svg955"
   sodipodi:docname="notifications.svg"
   width="66.499893"
   height="66.5"
   inkscape:version="0.92.2 5c3e80d, 2017-08-06">
  <metadata
     id="metadata961">
    <rdf:RDF>
      <cc:Work
         rdf:about="">
        <dc:format>image/svg+xml</dc:format>
        <dc:type
           rdf:resource="http://purl.org/dc/dcmitype/StillImage" />
      </cc:Work>
    </rdf:RDF>
  </metadata>
  <defs
     id="defs959" />
  <sodipodi:namedview
     pagecolor="#ffffff"
     bordercolor="#666666"
     borderopacity="1"
     objecttolerance="10"
     gridtolerance="10"
     guidetolerance="10"
     inkscape:pageopacity="0"
     inkscape:pageshadow="2"
     inkscape:window-width="640"
     inkscape:window-height="480"
     id="namedview957"
     showgrid="false"
     inkscape:zoom="1.888"
     inkscape:cx="33.249947"
     inkscape:cy="20.75"
     inkscape:window-x="0"
     inkscape:window-y="0"
     inkscape:window-maximized="0"
     inkscape:current-layer="svg955" />
  <title
     id="title947">tech icons 2</title>
  <path
     d="M 57.124947,35.61719 V 30.125 a 23.91217,23.91217 0 0 0 -18.75,-23.31519 V 5.125 a 5.125,5.125 0 0 0 -10.25,0 V 6.80981 A 23.91217,23.91217 0 0 0 9.3749475,30.125 v 5.49219 A 29.81242,29.81242 0 0 1 0.58588745,56.83594 1.99982,1.99982 0 0 0 1.9999475,60.25 H 28.124947 v 1.125 a 5.125,5.125 0 0 0 10.25,0 V 60.25 h 26.125 a 1.99982,1.99982 0 0 0 1.41406,-3.41406 29.81242,29.81242 0 0 1 -8.78906,-21.21875 z m -25,-30.49219 a 1.125,1.125 0 0 1 2.25,0 v 1.15356 c -0.373,-0.01739 -0.74774,-0.02856 -1.125,-0.02856 -0.37726,0 -0.752,0.01117 -1.125,0.02856 z m 2.25,56.25 a 1.125,1.125 0 0 1 -2.25,0 V 60.25 h 2.25 z M 6.4081475,56.25 A 33.7523,33.7523 0 0 0 13.374947,35.61719 V 30.125 a 19.875,19.875 0 0 1 39.75,0 v 5.49219 a 33.7523,33.7523 0 0 0 6.9668,20.63281 z"
     id="path949"
     inkscape:connector-curvature="0" />
</svg>
