<?xml version="1.0" encoding="UTF-8" standalone="no"?>
<svg
   xmlns:dc="http://purl.org/dc/elements/1.1/"
   xmlns:cc="http://creativecommons.org/ns#"
   xmlns:rdf="http://www.w3.org/1999/02/22-rdf-syntax-ns#"
   xmlns:svg="http://www.w3.org/2000/svg"
   xmlns="http://www.w3.org/2000/svg"
   xmlns:sodipodi="http://sodipodi.sourceforge.net/DTD/sodipodi-0.dtd"
   xmlns:inkscape="http://www.inkscape.org/namespaces/inkscape"
   viewBox="0 0 72.745705 60.25"
   x="0px"
   y="0px"
   version="1.1"
   id="svg941"
   sodipodi:docname="profile.svg"
   width="72.745705"
   height="60.25"
   inkscape:version="0.92.2 5c3e80d, 2017-08-06">
  <metadata
     id="metadata945">
    <rdf:RDF>
      <cc:Work
         rdf:about="">
        <dc:format>image/svg+xml</dc:format>
        <dc:type
           rdf:resource="http://purl.org/dc/dcmitype/StillImage" />
      </cc:Work>
    </rdf:RDF>
  </metadata>
  <sodipodi:namedview
     pagecolor="#ffffff"
     bordercolor="#666666"
     borderopacity="1"
     objecttolerance="10"
     gridtolerance="10"
     guidetolerance="10"
     inkscape:pageopacity="0"
     inkscape:pageshadow="2"
     inkscape:window-width="1322"
     inkscape:window-height="688"
     id="namedview943"
     showgrid="false"
     inkscape:zoom="2.6700352"
     inkscape:cx="60.863934"
     inkscape:cy="22.155748"
     inkscape:window-x="0"
     inkscape:window-y="0"
     inkscape:window-maximized="0"
     inkscape:current-layer="svg941" />
  <defs
     id="defs923">
    <style
       id="style921">.cls-1{fill:none;}</style>
  </defs>
  <title
     id="title925">phone icons - cleanup</title>
  <g
     data-name="bounding squares"
     id="g929"
     transform="translate(-13.740337,-26.23633)">
    <rect
       data-name="Rectangle"
       class="cls-1"
       width="100"
       height="100"
       id="rect927"
       x="0"
       y="0"
       style="fill:none" />
  </g>
  <g
     id="g935"
     transform="translate(-13.740337,-26.23633)">
    <path
       d="m 50.11133,61.48633 a 17.625,17.625 0 1 1 17.625,-17.625 17.64459,17.64459 0 0 1 -17.625,17.625 z m 0,-31.25 a 13.625,13.625 0 1 0 13.625,13.625 13.64063,13.64063 0 0 0 -13.625,-13.625 z"
       id="path931"
       inkscape:connector-curvature="0" />
    <path
       d="m 84.48633,86.48633 a 1.99352,1.99352 0 0 1 -1.41406,-0.58594 46.61271,46.61271 0 0 0 -65.92187,0 1.99979,1.99979 0 0 1 -2.82812,-2.82812 50.61125,50.61125 0 0 1 71.57813,0 2,2 0 0 1 -1.41406,3.41406 z"
       id="path933"
       inkscape:connector-curvature="0" />
  </g>
</svg>
