<?xml version="1.0" encoding="UTF-8" standalone="no"?>
<svg
   xmlns:dc="http://purl.org/dc/elements/1.1/"
   xmlns:cc="http://creativecommons.org/ns#"
   xmlns:rdf="http://www.w3.org/1999/02/22-rdf-syntax-ns#"
   xmlns:svg="http://www.w3.org/2000/svg"
   xmlns="http://www.w3.org/2000/svg"
   xmlns:sodipodi="http://sodipodi.sourceforge.net/DTD/sodipodi-0.dtd"
   xmlns:inkscape="http://www.inkscape.org/namespaces/inkscape"
   version="1.1"
   x="0px"
   y="0px"
   viewBox="0 0 72 72"
   enable-background="new 0 0 100 100"
   xml:space="preserve"
   id="svg22"
   sodipodi:docname="search-active.svg"
   width="72"
   height="72"
   inkscape:version="0.92.2 5c3e80d, 2017-08-06"><metadata
     id="metadata28"><rdf:RDF><cc:Work
         rdf:about=""><dc:format>image/svg+xml</dc:format><dc:type
           rdf:resource="http://purl.org/dc/dcmitype/StillImage" /><dc:title></dc:title></cc:Work></rdf:RDF></metadata><defs
     id="defs26" /><sodipodi:namedview
     pagecolor="#ffffff"
     bordercolor="#666666"
     borderopacity="1"
     objecttolerance="10"
     gridtolerance="10"
     guidetolerance="10"
     inkscape:pageopacity="0"
     inkscape:pageshadow="2"
     inkscape:window-width="1058"
     inkscape:window-height="512"
     id="namedview24"
     showgrid="false"
     inkscape:zoom="1.888"
     inkscape:cx="35.470339"
     inkscape:cy="87.192503"
     inkscape:window-x="121"
     inkscape:window-y="97"
     inkscape:window-maximized="0"
     inkscape:current-layer="svg22" /><path
     d="M 71.121,66.879 53.215,48.973 C 57.451,43.799 60,37.193 60,30 60,13.458 46.542,0 30,0 13.458,0 0,13.458 0,30 c 0,16.542 13.458,30 30,30 7.193,0 13.799,-2.549 18.973,-6.785 l 17.906,17.906 c 1.172,1.172 3.07,1.172 4.242,0 1.172,-1.172 1.172,-3.07 0,-4.242 z M 6,30 C 6,16.767 16.767,6 30,6 43.233,6 54,16.767 54,30 54,43.233 43.233,54 30,54 16.767,54 6,43.233 6,30 Z"
     id="path16"
     inkscape:connector-curvature="0"
     style="fill:#900202;fill-opacity:1" /></svg>