<?xml version="1.0" encoding="UTF-8" standalone="no"?>
<svg
   xmlns:dc="http://purl.org/dc/elements/1.1/"
   xmlns:cc="http://creativecommons.org/ns#"
   xmlns:rdf="http://www.w3.org/1999/02/22-rdf-syntax-ns#"
   xmlns:svg="http://www.w3.org/2000/svg"
   xmlns="http://www.w3.org/2000/svg"
   xmlns:sodipodi="http://sodipodi.sourceforge.net/DTD/sodipodi-0.dtd"
   xmlns:inkscape="http://www.inkscape.org/namespaces/inkscape"
   version="1.1"
   x="0px"
   y="0px"
   viewBox="0 0 85.25 85.25"
   xml:space="preserve"
   id="svg987"
   sodipodi:docname="search.svg"
   width="85.25"
   height="85.25"
   inkscape:version="0.92.2 5c3e80d, 2017-08-06"><metadata
     id="metadata993"><rdf:RDF><cc:Work
         rdf:about=""><dc:format>image/svg+xml</dc:format><dc:type
           rdf:resource="http://purl.org/dc/dcmitype/StillImage" /></cc:Work></rdf:RDF></metadata><defs
     id="defs991" /><sodipodi:namedview
     pagecolor="#ffffff"
     bordercolor="#666666"
     borderopacity="1"
     objecttolerance="10"
     gridtolerance="10"
     guidetolerance="10"
     inkscape:pageopacity="0"
     inkscape:pageshadow="2"
     inkscape:window-width="1322"
     inkscape:window-height="809"
     id="namedview989"
     showgrid="false"
     inkscape:zoom="1.888"
     inkscape:cx="42.625"
     inkscape:cy="30.125"
     inkscape:window-x="0"
     inkscape:window-y="0"
     inkscape:window-maximized="0"
     inkscape:current-layer="svg987" /><path
     d="M 27,6.25 C 15.558594,6.25 6.25,15.558594 6.25,27 6.25,38.441406 15.558594,47.75 27,47.75 38.441406,47.75 47.75,38.441406 47.75,27 47.75,15.558594 38.441406,6.25 27,6.25 Z m 0,37.5 c -9.236328,0 -16.75,-7.513672 -16.75,-16.75 0,-9.236328 7.513672,-16.75 16.75,-16.75 9.236328,0 16.75,7.513672 16.75,16.75 0,9.236328 -7.513672,16.75 -16.75,16.75 z"
     id="path979"
     inkscape:connector-curvature="0" /><path
     d="m 84.664062,75.585937 -31.25,-31.25 c -0.78125,-0.78125 -2.046875,-0.78125 -2.828125,0 L 50.4375,44.484375 48.82373,42.870605 C 52.074951,38.412109 54,32.927979 54,27 54,12.112305 41.887695,0 27,0 12.112305,0 0,12.112305 0,27 c 0,14.887695 12.112305,27 27,27 5.927917,0 11.41217,-1.925049 15.870605,-5.17627 l 1.61377,1.61377 -0.148438,0.148437 c -0.78125,0.78125 -0.78125,2.046875 0,2.828125 l 31.25,31.25 C 75.976562,85.054687 76.488281,85.25 77,85.25 c 0.511719,0 1.023437,-0.195313 1.414062,-0.585938 l 6.25,-6.25 c 0.78125,-0.78125 0.78125,-2.046875 0,-2.828125 z M 4,27 C 4,14.317383 14.317383,4 27,4 39.682617,4 50,14.317383 50,27 50,39.682617 39.682617,50 27,50 14.317383,50 4,39.682617 4,27 Z m 41.930908,19.227783 c 0.09979,-0.09814 0.19867,-0.197021 0.296875,-0.296875 L 47.609375,47.3125 47.3125,47.609375 Z M 77,80.421875 48.578125,52 52,48.578125 80.421875,77 Z"
     id="path981"
     inkscape:connector-curvature="0" /></svg>