<?xml version="1.0" standalone="no"?>
<!DOCTYPE svg PUBLIC "-//W3C//DTD SVG 20010904//EN"
 "http://www.w3.org/TR/2001/REC-SVG-20010904/DTD/svg10.dtd">
<svg version="1.0" xmlns="http://www.w3.org/2000/svg"
 width="1200.000000pt" height="1200.000000pt" viewBox="0 0 1200.000000 1200.000000"
 preserveAspectRatio="xMidYMid meet">
<metadata>
Created by potrace 1.11, written by Peter Selinger 2001-2013
</metadata>
<g transform="translate(0.000000,1200.000000) scale(0.100000,-0.100000)"
fill="#000000" stroke="none">
<path d="M3184 11894 c-81 -21 -157 -61 -218 -115 -111 -100 -167 -218 -172
-365 -5 -145 24 -228 132 -375 57 -78 386 -519 452 -607 11 -15 69 -92 128
-172 59 -80 145 -195 191 -256 45 -62 83 -115 83 -119 0 -4 -22 -35 -48 -69
-216 -273 -415 -684 -498 -1025 -10 -45 -53 -262 -58 -301 -5 -36 -17 -56 -59
-100 -29 -31 -95 -103 -147 -160 -52 -57 -102 -111 -110 -120 -8 -9 -35 -39
-60 -66 -174 -191 -256 -280 -260 -284 -13 -14 -135 -146 -220 -240 -52 -57
-109 -119 -126 -137 -17 -18 -59 -64 -93 -102 -34 -38 -79 -86 -99 -108 -20
-22 -75 -82 -122 -133 -47 -52 -110 -121 -140 -153 -30 -33 -66 -72 -80 -87
-14 -15 -65 -72 -115 -125 -49 -54 -105 -116 -124 -137 -19 -21 -50 -56 -70
-76 -20 -21 -74 -80 -121 -132 -47 -51 -98 -108 -115 -125 -16 -18 -61 -67
-100 -110 -38 -42 -81 -89 -95 -104 -52 -56 -219 -238 -266 -290 -27 -30 -58
-64 -69 -75 -263 -277 -397 -487 -495 -776 -61 -179 -84 -331 -84 -555 -1
-175 6 -250 35 -383 126 -586 542 -1077 1099 -1295 129 -50 266 -88 376 -103
27 -3 58 -8 69 -11 11 -3 94 -6 185 -8 290 -5 538 48 800 171 79 38 215 115
255 146 153 117 206 168 418 393 58 62 66 68 73 50 56 -159 164 -384 252 -524
297 -477 706 -843 1204 -1081 218 -103 475 -188 678 -224 l35 -6 1 -448 c0
-396 3 -454 18 -507 49 -168 161 -289 323 -352 59 -23 83 -26 178 -26 95 0
119 3 178 26 134 52 227 137 287 262 21 44 42 100 46 125 4 25 8 243 8 484 l1
439 30 4 c40 5 170 38 275 69 194 58 450 172 618 274 40 25 87 54 105 65 39
24 180 125 187 135 3 4 12 11 21 16 61 34 328 294 425 414 195 240 349 499
453 761 l48 120 99 -107 c241 -261 362 -360 575 -472 163 -86 392 -165 544
-186 22 -3 63 -9 90 -13 65 -10 355 -9 420 1 28 4 66 9 85 12 100 16 290 69
385 109 139 59 324 168 445 263 25 20 95 86 155 148 211 212 356 458 439 741
29 98 29 98 53 228 27 150 23 460 -8 618 -6 29 -13 65 -16 81 -6 39 -69 227
-94 284 -96 219 -202 376 -398 588 -31 33 -96 105 -146 159 -49 54 -99 108
-110 120 -11 11 -65 70 -120 130 -55 61 -102 112 -105 115 -12 12 -133 144
-215 234 -50 54 -101 111 -115 126 -198 217 -196 215 -372 405 -26 27 -55 59
-65 71 -15 18 -76 85 -223 244 -14 15 -68 74 -120 130 -52 57 -103 112 -113
124 -10 12 -37 41 -60 66 -23 25 -92 99 -152 165 -60 66 -114 125 -120 131 -5
6 -50 55 -100 109 -49 54 -94 103 -100 109 -5 6 -59 65 -120 131 -155 170
-205 224 -246 267 -28 29 -38 50 -43 86 -4 26 -16 92 -27 147 -11 55 -23 111
-25 125 -9 50 -87 287 -126 384 -91 229 -246 499 -387 675 -34 41 -34 44 -20
70 8 14 114 159 235 321 651 873 664 891 689 940 126 246 30 551 -218 689 -96
54 -256 74 -360 46 -127 -33 -208 -87 -298 -199 -56 -68 -50 -62 -104 -136
-22 -30 -44 -60 -50 -67 -5 -6 -38 -49 -71 -95 -253 -343 -625 -838 -629 -838
-4 0 -48 22 -98 49 -239 129 -506 222 -817 286 -8 1 -35 6 -60 9 -25 3 -54 8
-66 10 -67 13 -204 21 -384 21 -220 0 -320 -7 -485 -36 -33 -5 -70 -12 -82
-14 -50 -8 -264 -67 -343 -93 -153 -52 -384 -155 -472 -209 -21 -13 -40 -23
-42 -23 -2 0 -109 141 -237 313 -316 425 -358 480 -367 492 -4 6 -24 33 -45
60 -20 28 -40 55 -45 60 -4 6 -43 58 -86 117 -134 183 -215 250 -351 287 -78
22 -189 24 -261 5z m4621 -4446 l0 -648 -25 -1 c-153 -4 -3582 0 -3587 5 -5 4
-8 1163 -4 1272 l1 20 1808 0 1807 0 0 -648z m-4656 -1683 l0 -1504 -36 -43
c-19 -24 -38 -45 -42 -48 -3 -3 -47 -50 -96 -105 -49 -55 -115 -127 -146 -160
-31 -33 -78 -84 -105 -114 -267 -295 -326 -346 -495 -425 -221 -103 -452 -125
-686 -65 -289 73 -531 272 -663 544 -135 278 -136 605 -4 879 52 108 110 190
203 291 47 51 234 254 266 289 31 34 202 222 215 236 24 27 204 222 215 234
116 127 222 243 230 252 71 77 184 202 200 220 11 12 61 66 110 119 50 54 95
103 100 109 6 7 35 39 65 71 30 33 98 107 150 164 52 57 100 109 105 115 6 6
58 63 115 126 58 63 107 117 110 120 3 3 45 49 94 103 49 53 90 97 92 97 1 0
3 -677 3 -1505z m5730 1479 c11 -14 66 -76 123 -137 165 -179 221 -239 263
-286 22 -24 45 -49 50 -55 6 -6 112 -121 235 -256 123 -135 227 -247 230 -250
3 -3 50 -54 105 -114 55 -61 107 -117 115 -126 8 -9 58 -63 110 -120 52 -57
102 -111 110 -120 8 -9 60 -65 115 -126 55 -60 102 -111 105 -114 3 -3 75 -81
160 -175 85 -93 162 -177 170 -185 205 -217 270 -297 339 -422 31 -57 86 -208
95 -263 27 -163 24 -317 -9 -448 -99 -390 -396 -673 -800 -763 -16 -3 -93 -8
-170 -10 -112 -3 -158 0 -230 16 -204 45 -364 132 -513 279 -82 81 -235 244
-305 325 -10 12 -41 46 -69 76 -28 30 -76 82 -106 115 -31 33 -78 84 -106 113
l-51 53 -1 1509 c0 831 3 1510 7 1510 4 0 17 -12 28 -26z m-1089 -1730 c13 -3
15 -84 15 -649 l0 -645 -1809 2 -1809 3 1 625 c0 344 1 635 1 646 l1 21 1793
1 c985 0 1799 -1 1807 -4z"/>
</g>
</svg>
