<?xml version="1.0" standalone="no"?>
<!DOCTYPE svg PUBLIC "-//W3C//DTD SVG 20010904//EN"
 "http://www.w3.org/TR/2001/REC-SVG-20010904/DTD/svg10.dtd">
<svg version="1.0" xmlns="http://www.w3.org/2000/svg"
 width="800.000000pt" height="800.000000pt" viewBox="0 0 800.000000 800.000000"
 preserveAspectRatio="xMidYMid meet">
<metadata>
Created by potrace 1.11, written by Peter Selinger 2001-2013
</metadata>
<g transform="translate(0.000000,800.000000) scale(0.100000,-0.100000)"
fill="#000000" stroke="none">
<path d="M0 4000 l0 -4000 4000 0 4000 0 0 4000 0 4000 -4000 0 -4000 0 0
-4000z m4255 2185 c417 -19 850 -157 1137 -362 107 -76 250 -219 316 -316 109
-158 180 -349 202 -542 5 -49 10 -100 10 -112 l0 -23 -544 0 -543 0 -7 60
c-26 232 -200 413 -459 479 -91 24 -238 41 -344 41 -365 0 -625 -115 -726
-319 -28 -58 -32 -75 -32 -151 0 -122 22 -179 99 -255 129 -128 319 -195 761
-271 783 -134 1226 -305 1505 -584 139 -138 225 -284 272 -459 29 -110 36
-346 14 -465 -106 -558 -617 -942 -1421 -1068 -192 -30 -705 -33 -885 -5 -752
117 -1297 507 -1479 1057 -29 89 -51 210 -51 281 l0 59 515 0 c283 0 515 -1
515 -2 26 -181 71 -281 179 -388 156 -156 379 -233 706 -247 342 -14 625 60
765 200 113 112 141 230 93 382 -32 100 -164 194 -380 269 -124 42 -281 82
-548 136 -366 75 -633 153 -865 252 -446 190 -728 469 -817 807 -22 81 -26
118 -26 241 0 200 30 326 119 500 208 405 675 694 1269 786 119 18 361 33 465
28 36 -2 119 -6 185 -9z"/>
</g>
</svg>
